Coordinates
version=1
nRows=26
nColumns=22
inDegrees=yes

Units are S.I. units (second, meters, Newtons, ...)
If the header above contains a line with 'inDegrees', this indicates whether rotational values are in degrees (yes) or radians (no).

endheader
time	pelvis_tilt	pelvis_list	pelvis_rotation	pelvis_tx	pelvis_ty	pelvis_tz	hip_flexion_r	hip_adduction_r	hip_rotation_r	knee_angle_r	ankle_angle_r	subtalar_angle_r	hip_flexion_l	hip_adduction_l	hip_rotation_l	knee_angle_l	ankle_angle_l	subtalar_angle_l	lumbar_extension	lumbar_bending	lumbar_rotation
      3.66000000	     -0.21475563	      2.24050505	      7.91482133	      0.16757074	      1.04330019	     -0.46083254	     24.39187484	     -1.64590624	    -33.12716420	     -9.54583900	     11.64430279	     -4.93337875	    -11.84502625	     -1.09494430	     -2.27050421	    -14.20552753	     18.26536214	      4.05959866	     -5.88398606	     -1.02280148	    -10.12514745
      3.67000000	     -0.10868190	      2.09686846	      7.75718412	      0.17780046	      1.04237905	     -0.46001569	     24.16019150	     -1.53401105	    -33.64854682	     -9.49254517	     11.70403827	     -5.13841039	    -12.28921719	     -1.38379912	     -2.14038915	    -14.67357166	     18.02567129	      4.69402143	     -5.83870002	     -0.76734757	    -10.27140991
      3.68000000	      0.03769429	      1.95514839	      7.61541719	      0.18828330	      1.04158037	     -0.45916508	     23.91079819	     -1.49263622	    -34.20441439	     -9.83641987	     11.65542778	     -5.46539182	    -12.76427892	     -1.67938170	     -1.92900558	    -15.18456170	     17.72456285	      5.35132013	     -5.81964992	     -0.49507350	    -10.45010165
      3.69000000	      0.22972364	      1.79185548	      7.46750678	      0.19906813	      1.04092950	     -0.45819774	     23.62141216	     -1.46817976	    -34.77538961	    -10.49679700	     11.49102330	     -5.93048451	    -13.27824950	     -2.00677244	     -1.69485453	    -15.73270580	     17.31970447	      6.09730143	     -5.82110849	     -0.18558482	    -10.66071760
      3.70000000	      0.45180428	      1.59421783	      7.32935411	      0.21011182	      1.04044333	     -0.45710473	     23.29544738	     -1.44259158	    -35.43331914	    -11.38203332	     11.13439578	     -6.49465750	    -13.79458657	     -2.37765091	     -1.41566276	    -16.34348030	     16.83368964	      6.85768229	     -5.82803920	      0.16804746	    -10.90122188
      3.71000000	      0.68819195	      1.33966771	      7.18945868	      0.22141293	      1.04013904	     -0.45582338	     22.92671843	     -1.36075275	    -36.14605180	    -12.36402795	     10.60304294	     -7.14187911	    -14.28680118	     -2.81113588	     -1.11144856	    -17.02819986	     16.23579832	      7.66637629	     -5.81737482	      0.58126529	    -11.15085399
      3.72000000	      0.91546261	      1.01638636	      7.03796783	      0.23293249	      1.04003530	     -0.45430686	     22.52713108	     -1.18362808	    -36.85519956	    -13.33516868	      9.91811304	     -7.83247590	    -14.71841760	     -3.31351937	     -0.80233511	    -17.79802397	     15.51234168	      8.51677208	     -5.76427294	      1.05917517	    -11.40479389
      3.73000000	      1.10545559	      0.61129431	      6.88438582	      0.24460322	      1.04012385	     -0.45254762	     22.12670600	     -0.88795832	    -37.51797088	    -14.23313687	      9.15829500	     -8.49199411	    -15.02987323	     -3.89837349	     -0.51134612	    -18.69114489	     14.68161343	      9.33715167	     -5.64155015	      1.61187781	    -11.69832158
      3.74000000	      1.25915191	      0.16055775	      6.65215199	      0.25637248	      1.04044944	     -0.45042467	     21.71876741	     -0.44458256	    -37.89438430	    -14.98295754	      8.42656355	     -9.19048962	    -15.23543365	     -4.50495352	     -0.26955778	    -19.69738810	     13.65081382	     10.31266495	     -5.46789407	      2.18737678	    -11.90730982
      3.75000000	      1.33461937	     -0.34242604	      6.38974606	      0.26815061	      1.04094445	     -0.44801528	     21.36746542	      0.11919459	    -38.03455401	    -15.62140001	      7.78317992	     -9.77963415	    -15.24377883	     -5.15283254	     -0.08375327	    -20.87695840	     12.47394979	     11.22181537	     -5.20160580	      2.79499348	    -12.14663141
      3.76000000	      1.35365158	     -0.83028743	      6.04835542	      0.27991345	      1.04164764	     -0.44529030	     21.05197354	      0.75726645	    -37.84820196	    -16.15922384	      7.30615798	    -10.33335859	    -15.11179964	     -5.75128926	      0.09874453	    -22.18413837	     11.07413189	     12.22026079	     -4.88372257	      3.35858825	    -12.30832965
      3.77000000	      1.31628563	     -1.31432089	      5.63950484	      0.29162254	      1.04251169	     -0.44228453	     20.77667243	      1.46554827	    -37.39173754	    -16.62060086	      6.98235013	    -10.74804854	    -14.81129010	     -6.32740084	      0.21543888	    -23.65702476	      9.47995280	     13.09986033	     -4.51845875	      3.89799183	    -12.46052706
      3.78000000	      1.26505609	     -1.71954222	      5.16844298	      0.30325671	      1.04356734	     -0.43904463	     20.49564081	      2.14841624	    -36.74314715	    -17.04618437	      6.86440523	    -11.12023468	    -14.40814080	     -6.80096590	      0.35819216	    -25.25545953	      7.66088025	     14.05188429	     -4.16892180	      4.32994848	    -12.55404341
      3.79000000	      1.21187005	     -2.04688971	      4.66171397	      0.31482128	      1.04477169	     -0.43565766	     20.18487575	      2.78752165	    -36.00037425	    -17.43147184	      6.94864479	    -11.41737705	    -13.90781211	     -7.17812205	      0.55744318	    -26.98111185	      5.64855741	     15.00768886	     -3.84522024	      4.66599181	    -12.61107217
      3.80000000	      1.18803095	     -2.30020553	      4.10864686	      0.32624357	      1.04612318	     -0.43212934	     19.80768247	      3.38969267	    -35.16835450	    -17.76022719	      7.07094737	    -11.57439584	    -13.33616114	     -7.46889411	      0.75563937	    -28.83471202	      3.46546343	     15.76871603	     -3.59519913	      4.91917476	    -12.64962043
      3.81000000	      1.17213186	     -2.47700604	      3.54977469	      0.33753696	      1.04751048	     -0.42853132	     19.37321639	      3.93129574	    -34.35518369	    -18.01621331	      7.33930208	    -11.69401035	    -12.66300593	     -7.67031455	      1.04237869	    -30.81947330	      1.19930548	     16.56345758	     -3.38649712	      5.08139659	    -12.65122642
      3.82000000	      1.20891131	     -2.59472631	      2.98382824	      0.34862595	      1.04896528	     -0.42489551	     18.83601621	      4.42870719	    -33.56442586	    -18.18942476	      7.58648785	    -11.73560015	    -11.93273903	     -7.80261937	      1.37079726	    -32.92172854	     -1.14384831	     17.15635216	     -3.28134398	      5.18321814	    -12.62615766
      3.83000000	      1.26564440	     -2.66150682	      2.42844095	      0.35949415	      1.05038322	     -0.42122042	     18.22094243	      4.88684034	    -32.83472794	    -18.25010460	      7.86511095	    -11.75593961	    -11.10159980	     -7.87753555	      1.75005215	    -35.14466252	     -3.49551829	     17.66647669	     -3.23609027	      5.22064452	    -12.56677111
      3.84000000	      1.36785497	     -2.70523833	      1.88434460	      0.37010460	      1.05176763	     -0.41754479	     17.51985164	      5.32230878	    -32.17192407	    -18.22970747	      8.10381835	    -11.77082213	    -10.20532050	     -7.92000038	      2.16256570	    -37.45841803	     -5.84088252	     18.03511113	     -3.28158338	      5.23677273	    -12.49217746
      3.85000000	      1.48524221	     -2.73676040	      1.34175289	      0.38045194	      1.05304157	     -0.41383645	     16.77307453	      5.74833233	    -31.54955689	    -18.13872109	      8.33754717	    -11.80747803	     -9.22350011	     -7.93769853	      2.59334106	    -39.83394878	     -8.12085594	     18.32862288	     -3.37750752	      5.23548510	    -12.37917015
      3.86000000	      1.63862334	     -2.77652049	      0.80449634	      0.39054356	      1.05423676	     -0.41010822	     15.96858331	      6.17802403	    -30.99059464	    -17.99652704	      8.54456489	    -11.86367327	     -8.19677222	     -7.95123219	      3.03598382	    -42.22428151	    -10.28297258	     18.56771096	     -3.54167821	      5.24066106	    -12.22874372
      3.87000000	      1.75752688	     -2.82050624	      0.23515872	      0.40036068	      1.05523492	     -0.40628456	     15.19163034	      6.62124457	    -30.39205843	    -17.81810334	      8.76071393	    -12.01027639	     -7.06233099	     -7.96399719	      3.42437728	    -44.60480485	    -12.20227390	     18.79682530	     -3.68912247	      5.24128746	    -12.03244256
      3.88000000	      1.91573809	     -2.88601605	     -0.34904434	      0.40994105	      1.05618272	     -0.40241623	     14.36972238	      7.07796796	    -29.81764423	    -17.62712524	      8.94007981	    -12.15475514	     -5.92855864	     -7.99389077	      3.78130118	    -46.90575961	    -13.79991694	     19.03219399	     -3.89792203	      5.26058098	    -11.80825210
      3.89000000	      2.05503639	     -2.97607531	     -0.97527885	      0.41930427	      1.05700804	     -0.39844513	     13.56014828	      7.56395151	    -29.20136673	    -17.41721229	      9.12924344	    -12.34520463	     -4.75698570	     -8.04110673	      4.10118149	    -49.09062072	    -14.93911351	     19.27191946	     -4.09409498	      5.29516677	    -11.51487943
      3.90000000	      2.20545518	     -3.08356986	     -1.64252610	      0.42846576	      1.05779951	     -0.39436788	     12.73068258	      8.06277037	    -28.57121702	    -17.19785521	      9.30512962	    -12.48839986	     -3.59790361	     -8.10330825	      4.38159573	    -51.11309273	    -15.60767606	     19.43869824	     -4.31076997	      5.33345233	    -11.16477763
      3.91000000	      2.32170256	     -3.21516284	     -2.36701666	      0.43742469	      1.05849366	     -0.39013135	     11.91311296	      8.60151538	    -27.83741880	    -16.93680679	      9.50190941	    -12.65368362	     -2.41527775	     -8.19459780	      4.61513739	    -52.96420480	    -15.64892370	     19.50590560	     -4.49357889	      5.38382242	    -10.76592297
